<svg viewBox="0 0 24 24" xmlns="http://www.w3.org/2000/svg"><path d="M6.72803 1.5097C4.93556 1.41522 3.14309 2.01014 1.8251 3.32247C-0.810888 5.95413 -0.534988 10.3706 2.28727 13.1842L3.18878 14.0818L11.3814 22.2463C11.5501 22.4108 11.7751 22.5 12 22.5C12.2249 22.5 12.4499 22.4108 12.6186 22.2463L20.8112 14.0818L21.7127 13.1842C24.535 10.3706 24.8109 5.95413 22.1749 3.32247C20.8569 2.01014 19.0644 1.41522 17.272 1.5097C15.4795 1.60419 13.687 2.37759 12.2812 3.78616L12 4.06962L11.7188 3.78616C10.313 2.37759 8.5205 1.60419 6.72803 1.5097Z" fill="#E05757" fill-opacity="0.5"/></svg>
