<svg xmlns="http://www.w3.org/2000/svg" viewBox="0 0 1000 315.97"><path fill="#5858e0" d="M476.239 138.913c-4.978 3.666-6.479 7.668-4.484 14.157 4.509 12.021 11.013 17.524 17.373 30.207 10.149 21.336-6.861 34.844-27.178 43.798-38.801 18.046-80.96 37.533-119.76 55.581-4.302 2.001-5.09 0-3.002-4.002 16.009-30.517 28.015-62.535-10.06-87.497-27.961-19.562-22.458-56.583-23.959-59.584-1.001-2.502-3.807-3.684-6.004-2.502-13.007 7.004-30.016 24.014-42.716 35.144-14.522 12.31-29.853 24.895-49.184 25.804-25.66 1.206-33.169 9.591-63.993 28.42-39.212 24.695-111.252 75.724-138.77 95.735-4.129 3.001-6.003 1.415-3.002-1.501 18.014-17.51 99.558-98.555 154.872-153.281 5.36-5.303 11.601-8.439 19.271-7.833 18.548 1.464 34.022-5.148 48.024-16.961 21.555-18.187 44.91-34.283 63.782-55.56 17.586-19.83 33.79-18.505 50.79-6.175 23.007 16.686 29.465 29.694 55.895 55.181 18.679 16.397 37.918 32.156 57.477 47.671-10.08-12.602-18.429-23.202-28.376-35.638-3.823-4.778-3.207-7.595 2.001-10.005 26.94-12.469 58.007-36.703 83.956-58.706 27.605-24.34 44.615-47.853 69.115-62.57 13.521-9.797 23.101-13.299 38.816 3.172 48.245 50.568 97.046 110.551 142.91 165.047l-27.955-41.128c-2.252-3.314-2.174-5.209 1.328-7.452 14.726-9.432 39.036-21.579 50.074-27.283 11.119-5.747 16.181-4.868 24.961 4.361 63.811 67.082 124.389 137.799 189.612 206.159 3.707 3.884 1.997 6.933-3.502 3.002-9.005-6.432-116.317-87.471-174.679-130.767-21.719 24.535-43.358 50.079-74.17 63.444-16.201 7.027-33.038 7.668-50.082 4.511-9.485-1.757-19.036-2.703-28.59-3.77-7.985-.892-14.11-4.303-16.682-12.398-3.656-11.508-11.727-18.488-22.394-23.574-14.75-7.034-29.753-13.671-43.442-22.746-9.913-6.571-10.616-9.712-5.486-20.549 13.137-27.747 28.518-75.273 18.513-99.465-3.036-7.34-6.713-8.544-13.609-4.44-37.546 22.346-70.953 50.63-107.691 73.993"></path></svg>